<?xml version="1.0" encoding="UTF-8" standalone="no"?>
<!-- Created with Inkscape (http://www.inkscape.org/) -->

<svg
   xmlns:dc="http://purl.org/dc/elements/1.1/"
   xmlns:cc="http://creativecommons.org/ns#"
   xmlns:rdf="http://www.w3.org/1999/02/22-rdf-syntax-ns#"
   xmlns:svg="http://www.w3.org/2000/svg"
   xmlns="http://www.w3.org/2000/svg"
   xmlns:sodipodi="http://sodipodi.sourceforge.net/DTD/sodipodi-0.dtd"
   xmlns:inkscape="http://www.inkscape.org/namespaces/inkscape"
   width="223.43764"
   height="47.773418"
   id="svg2"
   version="1.1"
   inkscape:version="0.48.2 r9819"
   sodipodi:docname="slateless-logo.svg">
  <defs
     id="defs4" />
  <sodipodi:namedview
     id="base"
     pagecolor="#ffffff"
     bordercolor="#666666"
     borderopacity="1.0"
     inkscape:pageopacity="0.0"
     inkscape:pageshadow="2"
     inkscape:zoom="3.959798"
     inkscape:cx="105.41187"
     inkscape:cy="3.9237709"
     inkscape:document-units="px"
     inkscape:current-layer="layer1"
     showgrid="false"
     inkscape:window-width="1271"
     inkscape:window-height="658"
     inkscape:window-x="0"
     inkscape:window-y="0"
     inkscape:window-maximized="0"
     fit-margin-top="0"
     fit-margin-left="0"
     fit-margin-right="0"
     fit-margin-bottom="0" />
  <metadata
     id="metadata7">
    <rdf:RDF>
      <cc:Work
         rdf:about="">
        <dc:format>image/svg+xml</dc:format>
        <dc:type
           rdf:resource="http://purl.org/dc/dcmitype/StillImage" />
        <dc:title></dc:title>
      </cc:Work>
    </rdf:RDF>
  </metadata>
  <g
     inkscape:label="Layer 1"
     inkscape:groupmode="layer"
     id="layer1"
     transform="translate(-300.23319,-163.36527)">
    <g
       style="font-size:40px;font-style:normal;font-variant:normal;font-weight:normal;font-stretch:normal;text-align:start;line-height:125%;letter-spacing:0px;word-spacing:0px;writing-mode:lr-tb;text-anchor:start;fill:#ffffff;fill-opacity:1;stroke:none;font-family:Rock Salt;-inkscape-font-specification:Rock Salt"
       id="text3044">
      <path
         d="m 335.11606,202.38873 c -3e-5,0.26042 -0.0131,0.45573 -0.0391,0.58594 -0.13024,0.0521 -0.23441,0.13021 -0.3125,0.23438 -0.0782,0.0781 -0.20837,0.10416 -0.39063,0.0781 -0.0521,0.39063 -0.18232,0.71615 -0.39062,0.97656 -0.20837,0.26042 -0.42972,0.49479 -0.66407,0.70313 -0.20836,0.23437 -0.41669,0.46875 -0.625,0.70312 -0.20836,0.26042 -0.33857,0.58594 -0.39062,0.97657 -0.39066,0.20833 -0.78128,0.48176 -1.17188,0.82031 -0.36461,0.36458 -0.69013,0.61197 -0.97656,0.74219 -0.20836,0.10416 -0.42971,0.18228 -0.66406,0.23437 -0.2344,0.0781 -0.46878,0.16927 -0.70313,0.27344 -0.75523,0.33853 -1.53648,0.6901 -2.34375,1.05469 -0.78127,0.36457 -1.60158,0.54686 -2.46093,0.54687 l -0.27344,0 c -0.10419,0.10416 -0.2344,0.16926 -0.39063,0.19531 -0.15627,0.0521 -0.31252,0.0911 -0.46875,0.11719 -0.15627,0.026 -0.31252,0.0651 -0.46875,0.11719 -0.15627,0.0521 -0.27345,0.1302 -0.35156,0.23437 -0.28648,-0.10417 -0.59898,-0.15625 -0.9375,-0.15625 l -0.27344,0 c -0.44272,0.10416 -0.85939,0.18229 -1.25,0.23438 -0.39064,0.0521 -0.8073,0.0781 -1.25,0.0781 -0.78126,0 -1.56251,-0.0521 -2.34375,-0.15625 -0.78126,-0.10417 -1.56251,-0.19532 -2.34375,-0.27343 -0.4948,-0.39064 -0.89844,-0.88543 -1.21093,-1.48438 -0.31251,-0.57292 -0.46876,-1.1849 -0.46875,-1.83594 -10e-6,-0.49479 0.10415,-0.96354 0.3125,-1.40625 0.20832,-0.41667 0.48176,-0.79427 0.82031,-1.13281 l 0.11719,0 c 0.23436,0 0.46874,-0.0521 0.70312,-0.15625 0.26041,-0.10417 0.5078,-0.15625 0.74219,-0.15625 0.2604,0 0.46874,0.10417 0.625,0.3125 0.18228,0.20833 0.31249,0.45573 0.39062,0.74219 0.10416,0.28645 0.16926,0.57291 0.19532,0.85937 0.026,0.3125 0.039,0.5599 0.0391,0.74219 0.28644,0.13021 0.58592,0.20833 0.89844,0.23438 0.33852,0.026 0.67706,0.0391 1.01562,0.0391 0.33853,-1e-5 0.71613,-0.026 1.13281,-0.0781 0.41665,-0.026 0.83332,-0.0911 1.25,-0.19531 0.44269,-0.0781 0.85936,-0.18229 1.25,-0.3125 0.41665,-0.13021 0.76821,-0.29948 1.05469,-0.50781 1.43227,-0.13021 2.69529,-0.45573 3.78906,-0.97656 1.09373,-0.52084 2.25258,-1.13282 3.47657,-1.83594 0.0521,-0.28646 0.15622,-0.50781 0.3125,-0.66406 0.18226,-0.1823 0.27341,-0.44271 0.27343,-0.78125 -2e-5,-0.0521 -0.013,-0.10417 -0.0391,-0.15625 -3e-5,-0.0781 -3e-5,-0.14323 0,-0.19532 -0.52086,-0.65104 -1.06773,-1.22395 -1.64062,-1.71875 -0.5469,-0.49478 -1.26305,-0.8203 -2.14844,-0.97656 -0.10419,-0.23437 -0.27346,-0.40364 -0.50781,-0.50781 -0.2344,-0.13021 -0.4818,-0.24739 -0.74219,-0.35156 -0.26044,-0.10417 -0.50784,-0.20833 -0.74219,-0.3125 -0.2344,-0.13021 -0.40367,-0.33854 -0.50781,-0.625 -0.70315,-0.13021 -1.43231,-0.28646 -2.1875,-0.46875 -0.72919,-0.20833 -1.35419,-0.57291 -1.875,-1.09375 -0.41668,-0.026 -0.82033,-0.10416 -1.21094,-0.23438 -0.3646,-0.15624 -0.72918,-0.29947 -1.09375,-0.42969 -0.3646,-0.15624 -0.7422,-0.28645 -1.13281,-0.39062 -0.39064,-0.1302 -0.79429,-0.19531 -1.21094,-0.19531 -0.10418,-0.18229 -0.24741,-0.32552 -0.42969,-0.42969 -0.1823,-0.10416 -0.39063,-0.1953 -0.625,-0.27344 -0.20834,-0.0781 -0.41667,-0.15624 -0.625,-0.23437 -0.1823,-0.10416 -0.32553,-0.24739 -0.42968,-0.42969 -0.10418,0.026 -0.18231,0.0781 -0.23438,0.15625 -0.0521,0.0781 -0.14324,0.1172 -0.27344,0.11719 l -0.15625,0 c -0.0521,-0.15624 -0.15626,-0.26041 -0.3125,-0.3125 -0.15626,-0.0781 -0.2474,-0.22135 -0.27343,-0.42969 -0.46876,-0.026 -0.89845,-0.11718 -1.28907,-0.27344 -0.36459,-0.15624 -0.71615,-0.32551 -1.05468,-0.50781 -0.31251,-0.20832 -0.63803,-0.40364 -0.97657,-0.58594 -0.33854,-0.18228 -0.71615,-0.32551 -1.13281,-0.42969 -0.26042,-0.20832 -0.50782,-0.42967 -0.74219,-0.66406 -0.20833,-0.2604 -0.48177,-0.39061 -0.82031,-0.39062 -0.0781,1e-5 -0.22136,0.026 -0.42969,0.0781 -0.0521,-0.46874 -0.24739,-0.79426 -0.58593,-0.97656 -0.33855,-0.20832 -0.70313,-0.39061 -1.09375,-0.54688 -0.26042,-0.67706 -0.61198,-1.27602 -1.05469,-1.79687 -0.44271,-0.52082 -0.92448,-1.00259 -1.44531,-1.44531 0.0521,-0.15624 0.0781,-0.27342 0.0781,-0.35157 0,-0.26039 -0.0651,-0.48175 -0.19531,-0.66406 -0.13021,-0.20831 -0.27344,-0.37758 -0.42969,-0.50781 -0.36458,-1.17186 -0.54687,-2.31769 -0.54687,-3.4375 0,-1.56248 0.35156,-3.00779 1.05468,-4.33594 0.67709,-1.35414 1.75782,-2.36976 3.24219,-3.04687 0.026,-0.20831 0.0911,-0.3906 0.19531,-0.54688 0.13021,-0.15622 0.20833,-0.33851 0.23438,-0.54687 0.23437,3e-5 0.41666,-0.0521 0.54687,-0.15625 0.13021,-0.10414 0.2474,-0.20831 0.35157,-0.3125 0.1302,-0.13018 0.26041,-0.24737 0.39062,-0.35157 0.13021,-0.10413 0.29948,-0.16923 0.50781,-0.19531 0.98958,-0.85934 2.04427,-1.54944 3.16407,-2.07031 1.11978,-0.54684 2.26561,-1.10674 3.4375,-1.67969 0.23436,-0.10413 0.42967,-0.29944 0.58593,-0.58594 l 0.23438,0 c 0.2604,4e-5 0.45572,-0.052 0.58594,-0.15625 0.15623,-0.13017 0.37759,-0.16923 0.66406,-0.11718 0.10415,-0.15622 0.23436,-0.26038 0.39062,-0.3125 0.18228,-0.052 0.35155,-0.0911 0.50782,-0.11719 0.18227,-0.0521 0.35154,-0.11715 0.50781,-0.19531 0.15623,-0.0781 0.2604,-0.19528 0.3125,-0.35157 l 0.27344,0 c 0.44269,4e-5 0.87238,-0.0651 1.28906,-0.19531 0.41665,-0.15621 0.83332,-0.32548 1.25,-0.50781 l 0.27344,0 c 0.52081,4e-5 1.00258,-0.0911 1.44531,-0.27344 0.46873,-0.20829 0.96352,-0.35152 1.48437,-0.42969 0.20832,-0.052 0.41665,-0.0651 0.625,-0.0391 0.20832,0.0261 0.41665,0.0391 0.625,0.0391 0.13019,4e-5 0.28644,-0.013 0.46875,-0.0391 0.18227,-0.026 0.31248,-0.10413 0.39063,-0.23437 l 0.0781,0 c 0.15623,4e-5 0.24738,0.0521 0.27344,0.15625 0.026,0.1042 0.10414,0.15629 0.23438,0.15625 0.18226,4e-5 0.36456,-0.026 0.54687,-0.0781 0.18227,-0.052 0.36456,-0.0781 0.54688,-0.0781 0.78122,4e-5 1.54945,0.0782 2.30468,0.23437 0.78123,0.15629 1.54945,0.29952 2.30469,0.42969 0.0521,0.31254 0.18226,0.53389 0.39063,0.66406 0.23434,0.13025 0.48174,0.24743 0.74218,0.35156 l 0,0.15625 c -3e-5,0.20837 0.0521,0.37765 0.15625,0.50782 -0.10419,0.36462 -0.28648,0.63805 -0.54687,0.82031 -0.26045,0.18233 -0.54691,0.33858 -0.85938,0.46875 0.13018,0.1042 0.20831,0.24743 0.23438,0.42969 0.026,0.18232 0.039,0.35159 0.0391,0.50781 l 0,0.46875 -0.19531,-0.0391 c -0.4167,3e-5 -0.62503,0.19534 -0.625,0.58593 -0.33857,-0.2083 -0.71617,-0.3385 -1.13281,-0.39062 -0.39066,-0.0521 -0.78128,-0.0781 -1.17188,-0.0781 -0.52086,4e-5 -1.06773,0.0261 -1.64062,0.0781 -0.57294,0.0261 -1.13284,0.013 -1.67969,-0.0391 -0.20836,0.26045 -0.46877,0.45576 -0.78125,0.58593 -0.31252,0.1042 -0.62502,0.15629 -0.9375,0.15625 -0.33856,4e-5 -0.66408,-0.0651 -0.97656,-0.19531 -0.31252,-0.15621 -0.53388,-0.37757 -0.66407,-0.66406 -0.13022,-0.0521 -0.24741,-0.0781 -0.35156,-0.0781 l -0.35156,0 c -0.41669,4e-5 -0.83335,0.0521 -1.25,0.15625 -0.39064,0.0782 -0.79429,0.18233 -1.21094,0.3125 -0.41668,0.1042 -0.83335,0.22139 -1.25,0.35157 -0.39064,0.1042 -0.79428,0.1693 -1.21094,0.19531 -0.15626,0.20837 -0.36459,0.35159 -0.625,0.42969 -0.26043,0.0782 -0.46876,0.22138 -0.625,0.42968 -0.54688,0.1042 -1.04167,0.28649 -1.48437,0.54688 -0.44272,0.23441 -0.87241,0.49482 -1.28906,0.78125 l -1.21094,0.82031 c -0.39063,0.26045 -0.83334,0.4818 -1.32813,0.66406 -0.36459,0.39066 -0.70313,0.70316 -1.01562,0.9375 -0.31251,0.23441 -0.71615,0.44274 -1.21094,0.625 -0.3125,0.1042 -0.49479,0.26045 -0.54687,0.46875 -0.026,0.20836 -0.13022,0.4167 -0.3125,0.625 -0.15626,0.18232 -0.35157,0.32555 -0.58594,0.42969 -0.20834,0.0781 -0.39063,0.22138 -0.54688,0.42969 -0.13021,0.18232 -0.23437,0.40367 -0.3125,0.66406 -0.0521,0.2344 -0.11719,0.46878 -0.19531,0.70313 -0.0781,0.2344 -0.16927,0.46877 -0.27344,0.70312 -0.10416,0.20836 -0.26041,0.39065 -0.46875,0.54688 0,0.10419 -0.013,0.20835 -0.0391,0.3125 0,0.10419 0,0.19533 0,0.27343 0,0.36461 0.0391,0.74221 0.11719,1.13282 0.10416,0.3646 0.16927,0.72918 0.19531,1.09375 0.52083,0.91147 1.13281,1.74481 1.83594,2.5 0.70312,0.72918 1.45833,1.40626 2.26562,2.03125 0.80729,0.62501 1.64062,1.21095 2.5,1.75781 0.88541,0.54689 1.75781,1.08074 2.61719,1.60156 0.31249,-0.026 0.59895,0.013 0.85938,0.11719 0.2604,0.0781 0.53384,0.13022 0.82031,0.15625 0.31249,0.23439 0.67707,0.41668 1.09375,0.54687 l 1.25,0.39063 c 0.41665,0.13022 0.8203,0.28647 1.21094,0.46875 0.3906,0.15626 0.71613,0.37761 0.97656,0.66406 0.13019,0.026 0.24738,0.0651 0.35156,0.11719 0.10415,0.026 0.22134,0.0391 0.35156,0.0391 0.15624,1e-5 0.24738,-0.0521 0.27344,-0.15625 1.17186,0.44272 2.31769,0.93751 3.4375,1.48438 1.11977,0.52084 2.30466,0.92448 3.55469,1.21093 0.49476,0.41668 1.04164,0.78126 1.64062,1.09375 0.59893,0.31251 1.19789,0.63803 1.79688,0.97657 0.59893,0.3125 1.17184,0.66406 1.71875,1.05468 0.54684,0.36459 1.02861,0.8073 1.44531,1.32813 0.0521,0.49479 0.15622,0.97656 0.3125,1.44531 0.18226,0.44271 0.27341,0.92448 0.27344,1.44531"
         id="path3096"
         inkscape:connector-curvature="0"
         style="fill:#ffffff" />
      <path
         d="m 358.5145,193.79498 c -3e-5,0.28647 -0.10419,0.50782 -0.3125,0.66407 -0.20836,0.13021 -0.31253,0.3125 -0.3125,0.54687 -3e-5,0.10418 0.0521,0.23438 0.15625,0.39063 -0.36461,0 -0.612,0.11719 -0.74219,0.35156 -0.13023,0.23438 -0.26044,0.4948 -0.39063,0.78125 l -0.50781,0 c -0.13023,1e-5 -0.23439,0.026 -0.3125,0.0781 -0.0781,0.0521 -0.15627,0.13022 -0.23437,0.23438 -0.0521,0.0781 -0.13023,0.20834 -0.23438,0.39062 -0.49481,0.10418 -0.97658,0.27345 -1.44531,0.50782 -0.44273,0.20833 -0.88543,0.44271 -1.32813,0.70312 -0.41668,0.23438 -0.84637,0.48178 -1.28906,0.74219 -0.44272,0.23438 -0.89845,0.42969 -1.36719,0.58594 -0.23438,0.39062 -0.57293,0.70312 -1.01562,0.9375 l -0.11719,0 c -0.13022,0.026 -0.24741,0.013 -0.35156,-0.0391 -0.0781,-0.0781 -0.18231,-0.11718 -0.3125,-0.11718 -0.0781,0 -0.13022,0.013 -0.15625,0.0391 -0.78126,0.52083 -1.65366,0.78125 -2.61719,0.78125 -0.26042,0 -0.50782,-0.013 -0.74219,-0.0391 -0.23438,-0.0521 -0.48178,-0.0781 -0.74218,-0.0781 -0.0781,0 -0.13022,0.026 -0.15625,0.0781 l -0.0781,0.15625 c -0.026,0.0521 -0.0651,0.10416 -0.11719,0.15625 -0.026,0.0521 -0.11719,0.0781 -0.27343,0.0781 -0.28647,0 -0.57293,-0.0391 -0.85938,-0.11719 -0.28646,-0.0781 -0.58594,-0.0911 -0.89844,-0.0391 -0.59896,-0.33854 -1.06771,-0.66406 -1.40625,-0.97656 -0.33854,-0.3125 -0.65104,-0.78125 -0.9375,-1.40625 -0.13021,-0.28646 -0.3125,-0.55989 -0.54687,-0.82031 -0.20834,-0.26042 -0.36459,-0.54687 -0.46875,-0.85938 -0.026,-0.10416 -0.0651,-0.28645 -0.11719,-0.54687 -0.0521,-0.28646 -0.10417,-0.58593 -0.15625,-0.89844 -0.0521,-0.31249 -0.10417,-0.61197 -0.15625,-0.89844 -0.026,-0.28645 -0.0391,-0.48176 -0.0391,-0.58594 0,-0.31249 0.013,-0.61197 0.0391,-0.89843 0.0521,-0.31249 0.10417,-0.62499 0.15625,-0.9375 0.15625,-0.98958 0.26042,-1.97916 0.3125,-2.96875 0.0781,-1.01561 0.29948,-1.99218 0.66406,-2.92969 -0.0521,-0.28644 -0.0781,-0.55988 -0.0781,-0.82031 l 0,-0.85938 c 0,-0.49477 -0.0651,-0.91144 -0.19531,-1.25 0.20833,-0.33852 0.31249,-0.71612 0.3125,-1.13281 -10e-6,-0.46873 -0.19532,-0.74217 -0.58594,-0.82031 l 0,-0.11719 c 0,-0.54685 -0.18229,-0.97654 -0.54688,-1.28906 0,-0.91144 0.22136,-1.58852 0.66407,-2.03125 0.46874,-0.46873 1.08072,-0.87237 1.83593,-1.21094 0.10417,-0.15623 0.14323,-0.28643 0.11719,-0.39063 0.18229,0.0521 0.35156,0.1042 0.50781,0.15625 0.15625,0.0521 0.3125,0.0781 0.46875,0.0781 0.26041,2e-5 0.49479,-0.039 0.70313,-0.11719 0.0781,0.31253 0.27343,0.50784 0.58594,0.58594 0.33853,0.0521 0.61197,0.13023 0.82031,0.23437 l 0,0.50782 c -10e-6,0.80731 0.1953,1.57554 0.58594,2.30468 -0.10418,0.20836 -0.16928,0.42971 -0.19532,0.66407 -0.026,0.23439 -0.0391,0.45575 -0.0391,0.66406 -10e-6,0.31252 0.013,0.62502 0.0391,0.9375 0.026,0.31252 0.0391,0.612 0.0391,0.89844 -1e-5,0.31252 -0.0391,0.62501 -0.11719,0.9375 -0.0521,0.31251 -0.19532,0.58595 -0.42969,0.82031 -0.026,0.33856 -0.0521,0.72918 -0.0781,1.17187 -10e-6,0.41669 -0.026,0.84637 -0.0781,1.28907 -0.026,0.44272 -0.0912,0.87241 -0.19531,1.28906 -0.10417,0.41668 -0.26042,0.75522 -0.46875,1.01562 -0.026,0.39064 -0.0521,0.79429 -0.0781,1.21094 0,0.39064 0,0.76824 0,1.13281 0,0.57293 0.026,1.25001 0.0781,2.03125 0.0781,0.78126 0.26041,1.4323 0.54687,1.95313 0.1302,0.20834 0.3776,0.36459 0.74219,0.46875 0.39062,0.10417 0.70312,0.15625 0.9375,0.15625 0.28645,0 0.57291,-0.0391 0.85938,-0.11719 0.31249,-0.10416 0.53384,-0.27343 0.66406,-0.50781 0.15624,0.026 0.2604,0.10417 0.3125,0.23437 0.0521,0.13022 0.14322,0.23438 0.27344,0.3125 1.48436,-0.62499 2.96873,-1.22395 4.45312,-1.79687 1.48436,-0.57291 2.94269,-1.23697 4.375,-1.99219 0.20831,0.10418 0.42967,0.15626 0.66406,0.15625 0.2604,1e-5 0.52082,-0.026 0.78125,-0.0781 0.2604,-0.0521 0.52082,-0.0781 0.78125,-0.0781 l 0.27344,0 c 0.0521,0.15626 0.0781,0.27345 0.0781,0.35156"
         id="path3098"
         inkscape:connector-curvature="0"
         style="fill:#ffffff" />
      <path
         d="m 387.30356,200.98248 c -0.0782,0.36459 -0.24743,0.66407 -0.50781,0.89844 -0.23441,0.20834 -0.52087,0.37761 -0.85938,0.50781 -0.33857,0.13021 -0.69013,0.22136 -1.05469,0.27344 -0.33857,0.026 -0.65106,0.0391 -0.9375,0.0391 -0.13023,0 -0.26044,0 -0.39062,0 -0.10419,-0.026 -0.22138,-0.0391 -0.35156,-0.0391 -0.13024,0 -0.19534,0.0651 -0.19532,0.19531 -2e-5,0.13021 -0.0651,0.22136 -0.19531,0.27344 -0.13023,-0.0521 -0.26044,-0.0911 -0.39062,-0.11719 -0.13024,-0.026 -0.26045,-0.0391 -0.39063,-0.0391 -0.18231,0 -0.36461,0.013 -0.54687,0.0391 -0.15628,0.026 -0.31253,0.0391 -0.46875,0.0391 -0.20836,0 -0.36461,-0.026 -0.46875,-0.0781 -0.0781,-0.0521 -0.15628,-0.10417 -0.23438,-0.15625 -0.0521,-0.0781 -0.11721,-0.15625 -0.19531,-0.23437 -0.0521,-0.0781 -0.14325,-0.14323 -0.27344,-0.19532 -0.18231,-0.0781 -0.33856,-0.0911 -0.46875,-0.0391 -0.10419,0.0521 -0.27346,-0.026 -0.50781,-0.23437 -0.31252,-0.26042 -0.58596,-0.57292 -0.82031,-0.9375 -0.20836,-0.39063 -0.41669,-0.79427 -0.625,-1.21094 -0.20836,-0.41666 -0.42971,-0.83333 -0.66407,-1.25 -0.23439,-0.41666 -0.50783,-0.78125 -0.82031,-1.09375 l -0.3125,0 c -0.46877,0 -0.79429,0.19532 -0.97656,0.58594 -0.13023,-0.0781 -0.26043,-0.16927 -0.39063,-0.27344 -0.13022,-0.1302 -0.27345,-0.23437 -0.42968,-0.3125 -0.59898,0.1823 -1.22398,0.33855 -1.875,0.46875 -0.65106,0.13021 -1.3021,0.19532 -1.95313,0.19531 l -0.54687,0 c -0.15627,1e-5 -0.32554,-0.026 -0.50782,-0.0781 -0.26042,0.10417 -0.4948,0.23438 -0.70312,0.39062 -0.20835,0.13021 -0.44272,0.19532 -0.70313,0.19531 -0.15626,1e-5 -0.33855,-0.0521 -0.54687,-0.15625 -0.15626,1e-5 -0.23439,0.0651 -0.23438,0.19532 0.026,0.13021 -0.0521,0.19531 -0.23437,0.19531 l -0.35156,0 c -0.3646,0 -0.72918,0.013 -1.09375,0.0391 -0.33855,0.026 -0.69011,0.0391 -1.05469,0.0391 -0.4948,1e-5 -1.00261,-0.0651 -1.52344,-0.19531 -0.13021,0.0781 -0.27344,0.11719 -0.42969,0.11719 -0.10417,0.0521 -0.18229,0.14323 -0.23437,0.27344 -0.0521,0.10417 -0.10417,0.20833 -0.15625,0.3125 -0.0521,0.0781 -0.13021,0.15625 -0.23438,0.23437 -0.0781,0.0521 -0.19531,0.0651 -0.35156,0.0391 -0.0521,0.31251 -0.18229,0.5599 -0.39062,0.74219 -0.20834,0.1823 -0.31251,0.45573 -0.3125,0.82031 -0.28646,0.15626 -0.52084,0.35157 -0.70313,0.58594 -0.18229,0.23438 -0.36458,0.48177 -0.54687,0.74219 -0.1823,0.26042 -0.37761,0.50781 -0.58594,0.74219 -0.18229,0.23437 -0.41667,0.41666 -0.70313,0.54687 -0.1302,0.15625 -0.16927,0.40365 -0.11718,0.74219 -0.28646,0.23437 -0.63802,0.4427 -1.05469,0.625 -0.41667,0.18229 -0.80729,0.27343 -1.17188,0.27344 -0.7552,-1e-5 -1.27603,-0.40365 -1.5625,-1.21094 10e-6,-0.26042 0.026,-0.53386 0.0781,-0.82031 0.026,-0.3125 0.0781,-0.59896 0.15625,-0.85938 0.0781,-0.28646 0.19531,-0.53385 0.35156,-0.74219 0.15625,-0.23437 0.37761,-0.40364 0.66406,-0.50781 1e-5,-0.23437 -0.0781,-0.39062 -0.23437,-0.46875 -0.15625,-0.10416 -0.22135,-0.27343 -0.19531,-0.50781 0.70312,-0.33854 1.3151,-0.78125 1.83593,-1.32813 0.52084,-0.54687 0.98959,-1.11978 1.40625,-1.71875 0.44271,-0.62499 0.88542,-1.24999 1.32813,-1.875 0.4427,-0.62499 0.9375,-1.18488 1.48437,-1.67968 l 0,-0.82032 c 0.78125,-0.83332 1.28906,-1.77082 1.52344,-2.8125 0.28645,-0.0521 0.46875,-0.18228 0.54688,-0.39062 0.10416,-0.20832 0.15624,-0.45572 0.15625,-0.74219 0.1302,2e-5 0.20832,-0.0521 0.23437,-0.15625 0.0521,-0.13019 0.16927,-0.16926 0.35156,-0.11719 0.23437,-0.62498 0.49479,-1.1979 0.78125,-1.71875 0.28645,-0.52081 0.57291,-1.04165 0.85938,-1.5625 0.28645,-0.54685 0.53384,-1.10675 0.74219,-1.67968 0.23436,-0.5729 0.40363,-1.21092 0.50781,-1.91407 0.36457,-0.026 0.55988,-0.19529 0.58594,-0.50781 0.0521,-0.33852 0.10415,-0.638 0.15625,-0.89844 0.39061,-0.36456 0.67707,-0.79424 0.85937,-1.28906 0.20832,-0.49477 0.39062,-1.00258 0.54688,-1.52344 0.15623,-0.54685 0.32551,-1.0807 0.50781,-1.60156 0.20832,-0.54685 0.49478,-1.02862 0.85937,-1.44531 l 0,-0.11719 c -10e-6,-0.13018 -0.0521,-0.2083 -0.15625,-0.23437 -0.10418,-0.0521 -0.15626,-0.1432 -0.15625,-0.27344 0.026,-0.026 0.039,-0.0521 0.0391,-0.0781 0.31248,-0.13018 0.54686,-0.33851 0.70312,-0.625 0.15624,-0.31247 0.39061,-0.53382 0.70313,-0.66406 0.54686,0.44274 1.02863,0.71618 1.44531,0.82031 0.41665,0.0782 0.96352,0.14326 1.64062,0.19532 0.33853,0.36461 0.52082,0.80732 0.54688,1.32812 0.0521,0.49482 0.14321,0.98961 0.27344,1.48438 0.20831,0.83336 0.42967,1.65367 0.66406,2.46093 0.2604,0.78128 0.45571,1.58857 0.58594,2.42188 0.0781,0.49481 0.22133,0.96356 0.42968,1.40625 0.20832,0.44273 0.35155,0.89846 0.42969,1.36719 0.0521,0.3646 0.0521,0.78126 0,1.25 -0.0521,0.44272 -2e-5,0.83335 0.15625,1.17187 l 0.27344,0.625 c 0.13019,0.28647 0.23435,0.58595 0.3125,0.89844 0.10414,0.31251 0.19529,0.62501 0.27344,0.9375 0.20831,0.78126 0.3906,1.62762 0.54687,2.53906 0.18227,0.88543 0.45571,1.69272 0.82031,2.42188 0.13019,0.26042 0.3255,0.44271 0.58594,0.54687 0.28644,0.10418 0.59894,0.1823 0.9375,0.23438 0.33852,0.026 0.66404,0.0391 0.97656,0.0391 0.33852,-0.026 0.62498,-0.0391 0.85938,-0.0391 l 0.39062,0 c 0.15623,0 0.31248,0.026 0.46875,0.0781 0.10414,0.20834 0.15623,0.39063 0.15625,0.54688 -2e-5,0.3125 -0.10419,0.5599 -0.3125,0.74218 -0.20836,0.1823 -0.31252,0.39064 -0.3125,0.625 -2e-5,0.13022 0.0521,0.27345 0.15625,0.42969 -0.10419,-0.026 -0.26044,-0.0391 -0.46875,-0.0391 -0.59898,0 -1.18492,0.10417 -1.75781,0.3125 0.20831,0.44271 0.48175,0.82032 0.82031,1.13281 0.36456,0.28646 0.74217,0.5599 1.13282,0.82031 0.26039,-0.20833 0.53382,-0.31249 0.82031,-0.3125 0.31247,1e-5 0.59893,0.0781 0.85937,0.23438 0.28643,0.13021 0.58591,0.19531 0.89844,0.19531 0.23435,0 0.40362,-0.0391 0.50781,-0.11719 0.20831,0.23438 0.37758,0.48178 0.50782,0.74219 0.13017,0.23438 0.29945,0.45573 0.50781,0.66406 m -12.22656,-6.25 c -0.0521,-0.4427 -0.14325,-0.7552 -0.27344,-0.9375 -0.10419,-0.20832 -0.19533,-0.45572 -0.27344,-0.74218 -0.10418,-0.36458 -0.18231,-0.7552 -0.23437,-1.17188 -0.0261,-0.41665 -0.0781,-0.8203 -0.15625,-1.21094 -0.18231,-0.8854 -0.39065,-1.77082 -0.625,-2.65625 -0.20835,-0.8854 -0.48179,-1.74477 -0.82032,-2.57812 0.10415,-0.15623 0.15624,-0.29946 0.15625,-0.42969 l 0,-0.11719 c -0.23439,-0.26039 -0.40366,-0.57289 -0.50781,-0.9375 -0.10418,-0.3906 -0.20835,-0.76821 -0.3125,-1.13281 -0.0781,-0.3906 -0.19533,-0.74217 -0.35156,-1.05469 -0.13022,-0.33852 -0.35158,-0.61195 -0.66406,-0.82031 -0.0781,0.15627 -0.1172,0.33856 -0.11719,0.54688 -1e-5,0.18231 0.013,0.35158 0.0391,0.50781 0.0521,0.15627 0.0781,0.32554 0.0781,0.50781 -0.26043,0.13023 -0.45575,0.33856 -0.58594,0.625 -0.10418,0.26044 -0.28647,0.46877 -0.54688,0.625 -0.20834,0.83335 -0.50782,1.62762 -0.89843,2.38281 -0.39064,0.72919 -0.80731,1.45835 -1.25,2.1875 -0.41668,0.72918 -0.82033,1.47137 -1.21094,2.22657 -0.39064,0.72917 -0.70313,1.4974 -0.9375,2.30468 -0.33855,0.23439 -0.57293,0.53387 -0.70313,0.89844 -0.10417,0.36459 -0.15625,0.72918 -0.15625,1.09375 0.23437,0.13022 0.49479,0.20834 0.78125,0.23438 0.3125,0 0.61197,0 0.89844,0 0.28645,0 0.55989,0.026 0.82031,0.0781 0.26041,0.0521 0.49479,0.1823 0.70313,0.39063 0.33853,-0.10416 0.70311,-0.16927 1.09375,-0.19532 0.41665,-0.0521 0.75519,-0.16926 1.01562,-0.35156 0.52082,0.1823 1.08072,0.27345 1.67969,0.27344 0.31249,1e-5 0.61197,-0.026 0.89844,-0.0781 0.31248,-0.0521 0.61196,-0.11718 0.89844,-0.19531 0.23435,0.0521 0.41665,0.14324 0.54687,0.27344 0.13019,0.10417 0.32551,0.14324 0.58594,0.11719 0.13019,-0.10416 0.20831,-0.20833 0.23437,-0.3125 0.026,-0.1302 0.0911,-0.24739 0.19532,-0.35157"
         id="path3100"
         inkscape:connector-curvature="0"
         style="fill:#ffffff" />
      <path
         d="m 418.67075,178.71686 c -0.1042,0.33856 -0.27348,0.65106 -0.50782,0.9375 l -0.66406,0.82031 c -0.20837,0.26044 -0.39066,0.5469 -0.54687,0.85938 -0.13024,0.28648 -0.16931,0.62502 -0.11719,1.01562 -0.0521,2e-5 -0.11722,2e-5 -0.19531,0 -0.0782,-0.026 -0.14327,-0.039 -0.19532,-0.0391 -0.41669,2e-5 -0.74222,0.10419 -0.97656,0.3125 -0.20836,0.18231 -0.49482,0.33856 -0.85937,0.46875 -0.0521,-0.15623 -0.11722,-0.29946 -0.19532,-0.42969 -0.0781,-0.15623 -0.19534,-0.26039 -0.35156,-0.3125 -0.62503,0.13023 -1.25003,0.2344 -1.875,0.3125 -0.62503,0.0521 -1.25003,0.13023 -1.875,0.23438 -0.28648,0.0521 -0.57294,0.13022 -0.85937,0.23437 -0.28649,0.0781 -0.58597,0.15627 -0.89844,0.23438 -0.15628,0.0521 -0.32555,0.0781 -0.50781,0.0781 -0.18232,-0.026 -0.36461,-0.026 -0.54688,0 -0.62502,0.0261 -1.3021,0.0781 -2.03125,0.15625 -0.72919,0.0521 -1.38023,0.24742 -1.95312,0.58594 -0.26044,-0.0521 -0.53388,-0.0911 -0.82032,-0.11719 -0.28647,-0.026 -0.57293,-0.039 -0.85937,-0.0391 -0.62502,2e-5 -1.31512,0.0651 -2.07031,0.19531 -0.72919,0.10419 -1.38023,0.32554 -1.95313,0.66406 -0.13022,-0.0521 -0.27345,-0.0911 -0.42969,-0.11718 -0.13022,-0.026 -0.28647,-0.0391 -0.46875,-0.0391 -0.0521,2e-5 -0.0912,0.013 -0.11718,0.0391 -0.0261,1e-5 -0.0651,1e-5 -0.11719,0 -0.0261,0.23439 -1e-5,0.46876 0.0781,0.70312 0.10416,0.20835 0.27343,0.37762 0.50782,0.50781 -0.10418,0.28648 -0.15627,0.59898 -0.15625,0.9375 -2e-5,0.44273 0.026,0.88544 0.0781,1.32813 0.0781,0.44272 0.11718,0.88543 0.11719,1.32812 -10e-6,0.49481 -0.0651,0.88543 -0.19531,1.17188 0.2604,0.78126 0.39061,1.61459 0.39062,2.5 -10e-6,0.31251 -0.026,0.62501 -0.0781,0.9375 -0.0261,0.28647 -0.0391,0.59897 -0.0391,0.9375 -10e-6,0.28646 0.10416,0.52084 0.3125,0.70312 0.20832,0.15626 0.31249,0.37761 0.3125,0.66407 -10e-6,0.10417 -0.026,0.20834 -0.0781,0.3125 0.36457,-0.0781 0.71613,-0.18229 1.05469,-0.3125 0.33852,-0.15625 0.69008,-0.23437 1.05468,-0.23438 0.20832,1e-5 0.40363,0.0391 0.58594,0.11719 0.20832,0.0781 0.39061,0.1823 0.54688,0.3125 -0.0261,0.13021 -0.0521,0.27344 -0.0781,0.42969 -2e-5,0.15625 -2e-5,0.3125 0,0.46875 -2e-5,0.28646 -2e-5,0.5599 0,0.82031 0.026,0.23438 0.0521,0.49479 0.0781,0.78125 -0.20835,0.36459 -0.45575,0.69011 -0.74219,0.97656 -0.26043,0.28646 -0.44273,0.65105 -0.54688,1.09375 -0.39064,0 -0.7422,0.0911 -1.05468,0.27344 -0.28648,0.15625 -0.55991,0.33854 -0.82032,0.54687 -0.26043,0.1823 -0.52084,0.36459 -0.78125,0.54688 -0.26043,0.15625 -0.54688,0.23437 -0.85937,0.23437 -0.39064,0 -0.66408,-0.0521 -0.82031,-0.15625 -0.15627,-0.1302 -0.27345,-0.26041 -0.35157,-0.39062 -0.0781,-0.13021 -0.15626,-0.2474 -0.23437,-0.35156 -0.0521,-0.10417 -0.1823,-0.14323 -0.39063,-0.11719 -0.0521,-0.33854 -0.15626,-0.65104 -0.3125,-0.9375 -0.15626,-0.3125 -0.32553,-0.61198 -0.50781,-0.89844 -0.15626,-0.28645 -0.32553,-0.57291 -0.50781,-0.85937 -0.15626,-0.3125 -0.27345,-0.625 -0.35156,-0.9375 -0.15626,-0.67708 -0.22137,-1.38021 -0.19532,-2.10938 0.026,-0.72916 -0.0912,-1.43228 -0.35156,-2.10937 0.0521,-0.36458 0.0911,-0.72916 0.11719,-1.09375 0.026,-0.39062 0.039,-0.76822 0.0391,-1.13282 -10e-6,-0.72915 -0.026,-1.4453 -0.0781,-2.14843 -0.026,-0.72916 -0.0521,-1.47134 -0.0781,-2.22657 -0.1823,-0.23436 -0.29949,-0.49477 -0.35156,-0.78125 -0.026,-0.31248 -0.0521,-0.61196 -0.0781,-0.89843 -0.0781,-0.0781 -0.16927,-0.15624 -0.27343,-0.23438 -0.0781,-0.0781 -0.13022,-0.18227 -0.15625,-0.3125 -0.20834,-0.0521 -0.36459,-0.0781 -0.46875,-0.0781 -0.36459,1e-5 -0.67709,0.0912 -0.9375,0.27343 -0.23438,0.15627 -0.45574,0.2344 -0.66407,0.23438 -0.20833,2e-5 -0.40365,-0.026 -0.58593,-0.0781 -0.1823,-0.0521 -0.36459,-0.0781 -0.54688,-0.0781 -0.15625,2e-5 -0.2474,0.0391 -0.27344,0.11719 0,0.0521 -0.0521,0.10418 -0.15625,0.15625 -0.0781,0.0521 -0.26042,0.10418 -0.54687,0.15625 -0.28646,0.0521 -0.61198,0.10418 -0.97656,0.15625 -0.33855,0.026 -0.67709,0.0521 -1.01563,0.0781 -0.3125,0.0261 -0.52083,0.0391 -0.625,0.0391 -0.41667,2e-5 -0.72917,-0.0781 -0.9375,-0.23437 -0.23437,-0.18228 -0.50781,-0.37759 -0.82031,-0.58594 0.0521,-0.15623 0.0781,-0.2604 0.0781,-0.3125 0,-0.2604 -0.0781,-0.46873 -0.23437,-0.625 -0.15625,-0.18227 -0.23437,-0.33852 -0.23438,-0.46875 10e-6,-0.28644 0.11719,-0.50779 0.35157,-0.66406 0.20833,-0.15623 0.32552,-0.40363 0.35156,-0.74219 0.59896,-0.26039 1.21094,-0.45571 1.83594,-0.58594 0.62499,-0.13018 1.26301,-0.23435 1.91406,-0.3125 0.65104,-0.0781 1.28906,-0.16925 1.91406,-0.27343 0.65104,-0.10415 1.28906,-0.27342 1.91406,-0.50782 0.18229,0.0261 0.35156,0.0521 0.50782,0.0781 0.18228,2e-5 0.36457,2e-5 0.54687,0 0.78124,2e-5 1.54947,-0.0781 2.30469,-0.23438 0.78124,-0.18227 1.57551,-0.27341 2.38281,-0.27343 0.20832,2e-5 0.41666,0.013 0.625,0.0391 0.20832,0.0261 0.41665,0.0651 0.625,0.11719 1.04165,-0.15623 2.0703,-0.3255 3.08594,-0.50782 1.04165,-0.18226 2.10935,-0.33851 3.20312,-0.46875 0.52082,-0.0521 1.02863,-0.0911 1.52344,-0.11718 0.52081,-0.0521 1.04165,-0.11717 1.5625,-0.19532 0.18227,-0.026 0.31248,-0.0651 0.39063,-0.11718 0.10414,-0.0781 0.15622,-0.22133 0.15625,-0.42969 0.23435,0.10419 0.49476,0.15627 0.78125,0.15625 0.44268,2e-5 0.87237,-0.0781 1.28906,-0.23438 0.41664,-0.15622 0.84633,-0.23435 1.28906,-0.23437 0.10414,2e-5 0.19529,0.013 0.27344,0.0391 0.0781,3e-5 0.15622,3e-5 0.23437,0 0.18227,3e-5 0.27341,-0.0781 0.27344,-0.23437 0.026,-0.18227 0.15622,-0.29946 0.39063,-0.35157 0.18226,-0.0521 0.44268,-0.0911 0.78125,-0.11718 0.33851,-0.026 0.69007,-0.0521 1.05468,-0.0781 0.3906,-0.0521 0.74216,-0.10414 1.05469,-0.15625 0.33851,-0.0781 0.58591,-0.18226 0.74219,-0.3125 l 0.27344,-0.42969 c 0.46871,0.0261 0.80726,0.2344 1.01562,0.625 0.23434,0.36461 0.36455,0.76826 0.39063,1.21094 0.10413,0.10419 0.24736,0.15628 0.42968,0.15625 0.2083,-0.026 0.39059,-0.039 0.54688,-0.0391 l 0.11719,0"
         id="path3102"
         inkscape:connector-curvature="0"
         style="fill:#ffffff" />
      <path
         d="m 437.96762,178.9903 0,0.15625 c -0.18232,0.0521 -0.27346,0.18231 -0.27344,0.39062 -0.28648,0.13023 -0.58596,0.2344 -0.89843,0.3125 -0.31253,0.0521 -0.61201,0.14325 -0.89844,0.27344 -0.28648,-0.026 -0.58596,-0.039 -0.89844,-0.0391 -0.28648,-0.026 -0.57294,-0.039 -0.85937,-0.0391 -0.78127,3e-5 -1.56252,0.0261 -2.34375,0.0781 -0.78127,0.0521 -1.56252,0.0521 -2.34375,0 -0.3646,0.20835 -0.76825,0.37763 -1.21094,0.50781 -0.41668,0.10419 -0.82033,0.15627 -1.21094,0.15625 -0.31251,2e-5 -0.58595,-0.039 -0.82031,-0.11719 -0.62501,0.31253 -1.31512,0.57294 -2.07031,0.78125 -0.72918,0.20836 -1.47137,0.41669 -2.22657,0.625 -0.75521,0.18232 -1.48438,0.40367 -2.1875,0.66407 -0.67709,0.23439 -1.27604,0.57293 -1.79687,1.01562 -0.0521,0.3646 -0.0912,0.72919 -0.11719,1.09375 -0.026,0.33856 -0.0391,0.6771 -0.0391,1.01563 -10e-6,0.3646 0.013,0.70314 0.0391,1.01562 0.0521,0.31252 0.14322,0.62502 0.27344,0.9375 0.1302,0.0521 0.27343,0.0912 0.42969,0.11719 0.18228,0.0261 0.33853,0.0391 0.46875,0.0391 0.1302,2e-5 0.26041,-0.013 0.39062,-0.0391 0.1302,-0.0521 0.22135,-0.14322 0.27344,-0.27344 0.39062,-0.0521 0.78124,-0.0651 1.17187,-0.0391 0.39062,1e-5 0.78124,1e-5 1.17188,0 0.39061,1e-5 0.76822,-0.013 1.13281,-0.0391 0.39062,-0.026 0.76822,-0.0911 1.13281,-0.19532 0.41666,-0.10415 0.8203,-0.16925 1.21094,-0.19531 0.41665,-0.026 0.8203,-0.0521 1.21094,-0.0781 0.39061,-0.026 0.79425,-0.0651 1.21094,-0.11719 0.41665,-0.0781 0.84633,-0.22134 1.28906,-0.42969 0.33852,0.13023 0.67706,0.19533 1.01562,0.19531 0.36457,2e-5 0.71613,0.0261 1.05469,0.0781 0.18227,0.13022 0.3255,0.27345 0.42969,0.42969 0.13019,0.15626 0.19529,0.33855 0.19531,0.54687 -2e-5,0.3646 -0.13023,0.72918 -0.39062,1.09375 -0.26044,0.3646 -0.46877,0.70314 -0.625,1.01563 l -0.42969,0 c -0.62502,1e-5 -1.237,0.0912 -1.83594,0.27343 -0.57293,0.15627 -1.15887,0.35158 -1.75781,0.58594 -0.57293,0.20835 -1.15887,0.40366 -1.75781,0.58594 -0.57293,0.15626 -1.17189,0.23439 -1.79688,0.23437 -0.10418,2e-5 -0.16928,0.0651 -0.19531,0.19532 -1e-5,0.10417 -0.026,0.1823 -0.0781,0.23437 -0.13022,-0.026 -0.32553,-0.0391 -0.58593,-0.0391 -0.59897,1e-5 -1.17189,0.0651 -1.71875,0.19531 -0.54689,0.13022 -1.10678,0.19532 -1.67969,0.19531 -0.15626,1e-5 -0.31251,1e-5 -0.46875,0 -0.15626,-0.026 -0.31251,-0.0521 -0.46875,-0.0781 -0.13022,0.20834 -0.29949,0.35157 -0.50781,0.42969 -0.20834,0.0521 -0.40365,0.15626 -0.58594,0.3125 -0.0781,0.23438 -0.13021,0.52084 -0.15625,0.85937 -10e-6,0.33855 -0.013,0.69011 -0.0391,1.05469 -1e-5,0.33855 -0.026,0.66407 -0.0781,0.97656 -0.0521,0.31251 -0.15625,0.5599 -0.3125,0.74219 0.026,0.13021 0.13021,0.1823 0.3125,0.15625 0.18229,-0.0521 0.27343,0.026 0.27344,0.23437 -1e-5,0.23438 -0.026,0.48178 -0.0781,0.74219 -0.0521,0.26042 -0.0781,0.52084 -0.0781,0.78125 -10e-6,0.4948 0.0521,1.04167 0.15625,1.64063 0.1302,0.57292 0.31249,1.10677 0.54687,1.60156 0.26041,0.49479 0.59896,0.91146 1.01563,1.25 0.41666,0.3125 0.93749,0.46875 1.5625,0.46875 0.41666,0 0.80728,-0.0781 1.17187,-0.23438 0.36458,-0.15625 0.66406,-0.41666 0.89844,-0.78125 l 0.19531,-0.0391 c 0.10416,0 0.19531,0.013 0.27344,0.0391 0.10416,0.026 0.20832,0.0391 0.3125,0.0391 0.15624,0 0.35155,-0.0911 0.58594,-0.27344 0.2604,-0.20833 0.53384,-0.44271 0.82031,-0.70313 0.31249,-0.26041 0.62499,-0.50781 0.9375,-0.74218 0.31249,-0.26042 0.61197,-0.44271 0.89844,-0.54688 0.18228,-0.36458 0.35155,-0.72916 0.50781,-1.09375 0.18228,-0.36458 0.44269,-0.65104 0.78125,-0.85937 l 0,-1.13282 c 0.2604,-0.28645 0.53384,-0.54686 0.82031,-0.78125 0.31249,-0.23436 0.54686,-0.53384 0.70313,-0.89843 0.13019,0.0521 0.24738,0.0911 0.35156,0.11718 0.13019,0.026 0.2604,0.0391 0.39063,0.0391 0.13019,0 0.2604,-0.013 0.39062,-0.0391 0.15623,-0.026 0.29946,-0.0651 0.42969,-0.11718 0.20831,0.28646 0.36456,0.61198 0.46875,0.97656 0.13019,0.33855 0.28644,0.66407 0.46875,0.97656 -0.2344,0.46876 -0.50783,1.02865 -0.82031,1.67969 -0.31252,0.65104 -0.65106,1.30208 -1.01563,1.95312 -0.3646,0.65105 -0.75522,1.27605 -1.17187,1.875 -0.39064,0.57292 -0.78127,1.01563 -1.17188,1.32813 -0.0781,0.0781 -0.24741,0.16927 -0.50781,0.27344 -0.28647,0.20833 -0.54689,0.40364 -0.78125,0.58593 -0.23439,0.20833 -0.45574,0.44271 -0.66406,0.70313 -0.75522,0.23437 -1.48439,0.54687 -2.1875,0.9375 -0.6771,0.39062 -1.35418,0.76822 -2.03125,1.13281 -0.31251,-0.0781 -0.65105,-0.11719 -1.01563,-0.11719 -0.31251,0 -0.62501,0.013 -0.9375,0.0391 -0.31251,0.0521 -0.65105,0.0781 -1.01562,0.0781 -0.10418,-0.13021 -0.26043,-0.22136 -0.46875,-0.27344 -0.1823,-0.026 -0.2474,-0.15625 -0.19532,-0.39062 -0.88542,-0.0521 -1.60156,-0.29948 -2.14843,-0.74219 -0.54688,-0.41667 -1.01563,-0.9375 -1.40625,-1.5625 -0.36459,-0.625 -0.66407,-1.30208 -0.89844,-2.03125 -0.23438,-0.72916 -0.48177,-1.43229 -0.74219,-2.10937 l 0,-0.11719 c 0,-0.13021 0.0521,-0.20833 0.15625,-0.23438 0.10417,-0.026 0.15625,-0.10416 0.15625,-0.23437 0,-0.0521 -0.013,-0.0911 -0.0391,-0.11719 -0.0781,-0.28645 -0.14323,-0.53385 -0.19531,-0.74219 -0.0521,-0.20833 -0.0781,-0.45572 -0.0781,-0.74218 0,-0.41667 0.026,-0.82031 0.0781,-1.21094 0.0521,-0.41666 0.0781,-0.83333 0.0781,-1.25 0,-0.41666 -0.0521,-0.78124 -0.15625,-1.09375 0.10417,-0.1302 0.19531,-0.29947 0.27344,-0.50781 0.0521,-0.23437 0.0911,-0.46874 0.11719,-0.70313 0.026,-0.23436 0.0391,-0.46874 0.0391,-0.70312 0.026,-0.23437 0.0651,-0.4427 0.11719,-0.625 -0.10417,-0.28645 -0.19532,-0.53385 -0.27344,-0.74219 -0.0781,-0.23436 -0.11719,-0.5078 -0.11719,-0.82031 l 0,-0.27344 c 0.26042,-0.4427 0.48177,-0.89843 0.66406,-1.36719 0.18229,-0.46873 0.37761,-0.95051 0.58594,-1.44531 l 0,-0.11719 c 0,-0.75519 -0.026,-1.5104 -0.0781,-2.26562 -0.0521,-0.75519 -0.0781,-1.5104 -0.0781,-2.26563 l 0,-0.74219 c 0,-0.26039 0.013,-0.50779 0.0391,-0.74218 0.20834,-0.10415 0.36459,-0.24738 0.46875,-0.42969 0.10417,-0.18227 0.26042,-0.3255 0.46875,-0.42969 l 1.28907,0 0.23437,-0.39062 c 0.0781,-0.13019 0.13021,-0.27342 0.15625,-0.42969 0.28646,-0.0781 0.55989,-0.18227 0.82031,-0.3125 0.28646,-0.15623 0.54687,-0.31248 0.78125,-0.46875 0.36458,-0.20831 0.6901,-0.3906 0.97657,-0.54688 0.31249,-0.18226 0.61197,-0.32549 0.89843,-0.42968 0.3125,-0.13019 0.63802,-0.23435 0.97657,-0.3125 0.33853,-0.0781 0.72915,-0.14321 1.17187,-0.19532 0.20832,3e-5 0.33853,-0.039 0.39063,-0.11718 0.0781,-0.0781 0.18228,-0.16925 0.3125,-0.27344 0.31249,0.0521 0.62499,0.10419 0.9375,0.15625 0.31248,0.0261 0.62498,0.0391 0.9375,0.0391 0.62498,3e-5 1.21092,-0.11716 1.75781,-0.35156 0.78123,2e-5 1.54946,-0.013 2.30469,-0.0391 0.78123,-0.026 1.56248,-0.039 2.34375,-0.0391 0.67706,3e-5 1.35414,0.0261 2.03125,0.0781 0.67706,0.0521 1.34112,0.14325 1.99218,0.27344 0.23436,-0.0781 0.49477,-0.11717 0.78125,-0.11719 0.31248,2e-5 0.62498,0.0391 0.9375,0.11719 0.33852,0.0521 0.66404,0.0521 0.97657,0 0.026,0.28648 0.0911,0.53388 0.19531,0.74218 0.13018,0.18232 0.19529,0.40367 0.19531,0.66407"
         id="path3104"
         inkscape:connector-curvature="0"
         style="fill:#ffffff" />
      <path
         d="m 457.42075,193.79498 c -3e-5,0.28647 -0.10419,0.50782 -0.3125,0.66407 -0.20836,0.13021 -0.31253,0.3125 -0.3125,0.54687 -3e-5,0.10418 0.0521,0.23438 0.15625,0.39063 -0.36461,0 -0.612,0.11719 -0.74219,0.35156 -0.13023,0.23438 -0.26044,0.4948 -0.39063,0.78125 l -0.50781,0 c -0.13023,1e-5 -0.23439,0.026 -0.3125,0.0781 -0.0781,0.0521 -0.15627,0.13022 -0.23437,0.23438 -0.0521,0.0781 -0.13023,0.20834 -0.23438,0.39062 -0.49481,0.10418 -0.97658,0.27345 -1.44531,0.50782 -0.44273,0.20833 -0.88543,0.44271 -1.32813,0.70312 -0.41668,0.23438 -0.84637,0.48178 -1.28906,0.74219 -0.44272,0.23438 -0.89845,0.42969 -1.36719,0.58594 -0.23438,0.39062 -0.57293,0.70312 -1.01562,0.9375 l -0.11719,0 c -0.13022,0.026 -0.24741,0.013 -0.35156,-0.0391 -0.0781,-0.0781 -0.18231,-0.11718 -0.3125,-0.11718 -0.0781,0 -0.13022,0.013 -0.15625,0.0391 -0.78126,0.52083 -1.65366,0.78125 -2.61719,0.78125 -0.26042,0 -0.50782,-0.013 -0.74219,-0.0391 -0.23438,-0.0521 -0.48178,-0.0781 -0.74218,-0.0781 -0.0781,0 -0.13022,0.026 -0.15625,0.0781 l -0.0781,0.15625 c -0.026,0.0521 -0.0651,0.10416 -0.11719,0.15625 -0.026,0.0521 -0.11719,0.0781 -0.27343,0.0781 -0.28647,0 -0.57293,-0.0391 -0.85938,-0.11719 -0.28646,-0.0781 -0.58594,-0.0911 -0.89844,-0.0391 -0.59896,-0.33854 -1.06771,-0.66406 -1.40625,-0.97656 -0.33854,-0.3125 -0.65104,-0.78125 -0.9375,-1.40625 -0.13021,-0.28646 -0.3125,-0.55989 -0.54687,-0.82031 -0.20834,-0.26042 -0.36459,-0.54687 -0.46875,-0.85938 -0.026,-0.10416 -0.0651,-0.28645 -0.11719,-0.54687 -0.0521,-0.28646 -0.10417,-0.58593 -0.15625,-0.89844 -0.0521,-0.31249 -0.10417,-0.61197 -0.15625,-0.89844 -0.026,-0.28645 -0.0391,-0.48176 -0.0391,-0.58594 0,-0.31249 0.013,-0.61197 0.0391,-0.89843 0.0521,-0.31249 0.10417,-0.62499 0.15625,-0.9375 0.15625,-0.98958 0.26042,-1.97916 0.3125,-2.96875 0.0781,-1.01561 0.29948,-1.99218 0.66406,-2.92969 -0.0521,-0.28644 -0.0781,-0.55988 -0.0781,-0.82031 l 0,-0.85938 c 0,-0.49477 -0.0651,-0.91144 -0.19531,-1.25 0.20833,-0.33852 0.31249,-0.71612 0.3125,-1.13281 -10e-6,-0.46873 -0.19532,-0.74217 -0.58594,-0.82031 l 0,-0.11719 c 0,-0.54685 -0.18229,-0.97654 -0.54688,-1.28906 0,-0.91144 0.22136,-1.58852 0.66407,-2.03125 0.46874,-0.46873 1.08072,-0.87237 1.83593,-1.21094 0.10417,-0.15623 0.14323,-0.28643 0.11719,-0.39063 0.18229,0.0521 0.35156,0.1042 0.50781,0.15625 0.15625,0.0521 0.3125,0.0781 0.46875,0.0781 0.26041,2e-5 0.49479,-0.039 0.70313,-0.11719 0.0781,0.31253 0.27343,0.50784 0.58594,0.58594 0.33853,0.0521 0.61197,0.13023 0.82031,0.23437 l 0,0.50782 c -10e-6,0.80731 0.1953,1.57554 0.58594,2.30468 -0.10418,0.20836 -0.16928,0.42971 -0.19532,0.66407 -0.026,0.23439 -0.0391,0.45575 -0.0391,0.66406 -10e-6,0.31252 0.013,0.62502 0.0391,0.9375 0.026,0.31252 0.0391,0.612 0.0391,0.89844 -1e-5,0.31252 -0.0391,0.62501 -0.11719,0.9375 -0.0521,0.31251 -0.19532,0.58595 -0.42969,0.82031 -0.026,0.33856 -0.0521,0.72918 -0.0781,1.17187 -10e-6,0.41669 -0.026,0.84637 -0.0781,1.28907 -0.026,0.44272 -0.0912,0.87241 -0.19531,1.28906 -0.10417,0.41668 -0.26042,0.75522 -0.46875,1.01562 -0.026,0.39064 -0.0521,0.79429 -0.0781,1.21094 0,0.39064 0,0.76824 0,1.13281 0,0.57293 0.026,1.25001 0.0781,2.03125 0.0781,0.78126 0.26041,1.4323 0.54687,1.95313 0.1302,0.20834 0.3776,0.36459 0.74219,0.46875 0.39062,0.10417 0.70312,0.15625 0.9375,0.15625 0.28645,0 0.57291,-0.0391 0.85938,-0.11719 0.31249,-0.10416 0.53384,-0.27343 0.66406,-0.50781 0.15624,0.026 0.2604,0.10417 0.3125,0.23437 0.0521,0.13022 0.14322,0.23438 0.27344,0.3125 1.48436,-0.62499 2.96873,-1.22395 4.45312,-1.79687 1.48436,-0.57291 2.94269,-1.23697 4.375,-1.99219 0.20831,0.10418 0.42967,0.15626 0.66406,0.15625 0.2604,1e-5 0.52082,-0.026 0.78125,-0.0781 0.2604,-0.0521 0.52082,-0.0781 0.78125,-0.0781 l 0.27344,0 c 0.0521,0.15626 0.0781,0.27345 0.0781,0.35156"
         id="path3106"
         inkscape:connector-curvature="0"
         style="fill:#ffffff" />
      <path
         d="m 481.87387,178.9903 0,0.15625 c -0.18232,0.0521 -0.27346,0.18231 -0.27344,0.39062 -0.28648,0.13023 -0.58596,0.2344 -0.89843,0.3125 -0.31253,0.0521 -0.61201,0.14325 -0.89844,0.27344 -0.28648,-0.026 -0.58596,-0.039 -0.89844,-0.0391 -0.28648,-0.026 -0.57294,-0.039 -0.85937,-0.0391 -0.78127,3e-5 -1.56252,0.0261 -2.34375,0.0781 -0.78127,0.0521 -1.56252,0.0521 -2.34375,0 -0.3646,0.20835 -0.76825,0.37763 -1.21094,0.50781 -0.41668,0.10419 -0.82033,0.15627 -1.21094,0.15625 -0.31251,2e-5 -0.58595,-0.039 -0.82031,-0.11719 -0.62501,0.31253 -1.31512,0.57294 -2.07031,0.78125 -0.72918,0.20836 -1.47137,0.41669 -2.22657,0.625 -0.75521,0.18232 -1.48438,0.40367 -2.1875,0.66407 -0.67709,0.23439 -1.27604,0.57293 -1.79687,1.01562 -0.0521,0.3646 -0.0912,0.72919 -0.11719,1.09375 -0.026,0.33856 -0.0391,0.6771 -0.0391,1.01563 -10e-6,0.3646 0.013,0.70314 0.0391,1.01562 0.0521,0.31252 0.14322,0.62502 0.27344,0.9375 0.1302,0.0521 0.27343,0.0912 0.42969,0.11719 0.18228,0.0261 0.33853,0.0391 0.46875,0.0391 0.1302,2e-5 0.26041,-0.013 0.39062,-0.0391 0.1302,-0.0521 0.22135,-0.14322 0.27344,-0.27344 0.39062,-0.0521 0.78124,-0.0651 1.17187,-0.0391 0.39062,1e-5 0.78124,1e-5 1.17188,0 0.39061,1e-5 0.76822,-0.013 1.13281,-0.0391 0.39062,-0.026 0.76822,-0.0911 1.13281,-0.19532 0.41666,-0.10415 0.8203,-0.16925 1.21094,-0.19531 0.41665,-0.026 0.8203,-0.0521 1.21094,-0.0781 0.39061,-0.026 0.79425,-0.0651 1.21094,-0.11719 0.41665,-0.0781 0.84633,-0.22134 1.28906,-0.42969 0.33852,0.13023 0.67706,0.19533 1.01562,0.19531 0.36457,2e-5 0.71613,0.0261 1.05469,0.0781 0.18227,0.13022 0.3255,0.27345 0.42969,0.42969 0.13019,0.15626 0.19529,0.33855 0.19531,0.54687 -2e-5,0.3646 -0.13023,0.72918 -0.39062,1.09375 -0.26044,0.3646 -0.46877,0.70314 -0.625,1.01563 l -0.42969,0 c -0.62502,1e-5 -1.237,0.0912 -1.83594,0.27343 -0.57293,0.15627 -1.15887,0.35158 -1.75781,0.58594 -0.57293,0.20835 -1.15887,0.40366 -1.75781,0.58594 -0.57293,0.15626 -1.17189,0.23439 -1.79688,0.23437 -0.10418,2e-5 -0.16928,0.0651 -0.19531,0.19532 -1e-5,0.10417 -0.026,0.1823 -0.0781,0.23437 -0.13022,-0.026 -0.32553,-0.0391 -0.58593,-0.0391 -0.59897,1e-5 -1.17189,0.0651 -1.71875,0.19531 -0.54689,0.13022 -1.10678,0.19532 -1.67969,0.19531 -0.15626,1e-5 -0.31251,1e-5 -0.46875,0 -0.15626,-0.026 -0.31251,-0.0521 -0.46875,-0.0781 -0.13022,0.20834 -0.29949,0.35157 -0.50781,0.42969 -0.20834,0.0521 -0.40365,0.15626 -0.58594,0.3125 -0.0781,0.23438 -0.13021,0.52084 -0.15625,0.85937 -10e-6,0.33855 -0.013,0.69011 -0.0391,1.05469 -1e-5,0.33855 -0.026,0.66407 -0.0781,0.97656 -0.0521,0.31251 -0.15625,0.5599 -0.3125,0.74219 0.026,0.13021 0.13021,0.1823 0.3125,0.15625 0.18229,-0.0521 0.27343,0.026 0.27344,0.23437 -1e-5,0.23438 -0.026,0.48178 -0.0781,0.74219 -0.0521,0.26042 -0.0781,0.52084 -0.0781,0.78125 -10e-6,0.4948 0.0521,1.04167 0.15625,1.64063 0.1302,0.57292 0.31249,1.10677 0.54687,1.60156 0.26041,0.49479 0.59896,0.91146 1.01563,1.25 0.41666,0.3125 0.93749,0.46875 1.5625,0.46875 0.41666,0 0.80728,-0.0781 1.17187,-0.23438 0.36458,-0.15625 0.66406,-0.41666 0.89844,-0.78125 l 0.19531,-0.0391 c 0.10416,0 0.19531,0.013 0.27344,0.0391 0.10416,0.026 0.20832,0.0391 0.3125,0.0391 0.15624,0 0.35155,-0.0911 0.58594,-0.27344 0.2604,-0.20833 0.53384,-0.44271 0.82031,-0.70313 0.31249,-0.26041 0.62499,-0.50781 0.9375,-0.74218 0.31249,-0.26042 0.61197,-0.44271 0.89844,-0.54688 0.18228,-0.36458 0.35155,-0.72916 0.50781,-1.09375 0.18228,-0.36458 0.44269,-0.65104 0.78125,-0.85937 l 0,-1.13282 c 0.2604,-0.28645 0.53384,-0.54686 0.82031,-0.78125 0.31249,-0.23436 0.54686,-0.53384 0.70313,-0.89843 0.13019,0.0521 0.24738,0.0911 0.35156,0.11718 0.13019,0.026 0.2604,0.0391 0.39063,0.0391 0.13019,0 0.2604,-0.013 0.39062,-0.0391 0.15623,-0.026 0.29946,-0.0651 0.42969,-0.11718 0.20831,0.28646 0.36456,0.61198 0.46875,0.97656 0.13019,0.33855 0.28644,0.66407 0.46875,0.97656 -0.2344,0.46876 -0.50783,1.02865 -0.82031,1.67969 -0.31252,0.65104 -0.65106,1.30208 -1.01563,1.95312 -0.3646,0.65105 -0.75522,1.27605 -1.17187,1.875 -0.39064,0.57292 -0.78127,1.01563 -1.17188,1.32813 -0.0781,0.0781 -0.24741,0.16927 -0.50781,0.27344 -0.28647,0.20833 -0.54689,0.40364 -0.78125,0.58593 -0.23439,0.20833 -0.45574,0.44271 -0.66406,0.70313 -0.75522,0.23437 -1.48439,0.54687 -2.1875,0.9375 -0.6771,0.39062 -1.35418,0.76822 -2.03125,1.13281 -0.31251,-0.0781 -0.65105,-0.11719 -1.01563,-0.11719 -0.31251,0 -0.62501,0.013 -0.9375,0.0391 -0.31251,0.0521 -0.65105,0.0781 -1.01562,0.0781 -0.10418,-0.13021 -0.26043,-0.22136 -0.46875,-0.27344 -0.1823,-0.026 -0.2474,-0.15625 -0.19532,-0.39062 -0.88542,-0.0521 -1.60156,-0.29948 -2.14843,-0.74219 -0.54688,-0.41667 -1.01563,-0.9375 -1.40625,-1.5625 -0.36459,-0.625 -0.66407,-1.30208 -0.89844,-2.03125 -0.23438,-0.72916 -0.48177,-1.43229 -0.74219,-2.10937 l 0,-0.11719 c 0,-0.13021 0.0521,-0.20833 0.15625,-0.23438 0.10417,-0.026 0.15625,-0.10416 0.15625,-0.23437 0,-0.0521 -0.013,-0.0911 -0.0391,-0.11719 -0.0781,-0.28645 -0.14323,-0.53385 -0.19531,-0.74219 -0.0521,-0.20833 -0.0781,-0.45572 -0.0781,-0.74218 0,-0.41667 0.026,-0.82031 0.0781,-1.21094 0.0521,-0.41666 0.0781,-0.83333 0.0781,-1.25 0,-0.41666 -0.0521,-0.78124 -0.15625,-1.09375 0.10417,-0.1302 0.19531,-0.29947 0.27344,-0.50781 0.0521,-0.23437 0.0911,-0.46874 0.11719,-0.70313 0.026,-0.23436 0.0391,-0.46874 0.0391,-0.70312 0.026,-0.23437 0.0651,-0.4427 0.11719,-0.625 -0.10417,-0.28645 -0.19532,-0.53385 -0.27344,-0.74219 -0.0781,-0.23436 -0.11719,-0.5078 -0.11719,-0.82031 l 0,-0.27344 c 0.26042,-0.4427 0.48177,-0.89843 0.66406,-1.36719 0.18229,-0.46873 0.37761,-0.95051 0.58594,-1.44531 l 0,-0.11719 c 0,-0.75519 -0.026,-1.5104 -0.0781,-2.26562 -0.0521,-0.75519 -0.0781,-1.5104 -0.0781,-2.26563 l 0,-0.74219 c 0,-0.26039 0.013,-0.50779 0.0391,-0.74218 0.20834,-0.10415 0.36459,-0.24738 0.46875,-0.42969 0.10417,-0.18227 0.26042,-0.3255 0.46875,-0.42969 l 1.28907,0 0.23437,-0.39062 c 0.0781,-0.13019 0.13021,-0.27342 0.15625,-0.42969 0.28646,-0.0781 0.55989,-0.18227 0.82031,-0.3125 0.28646,-0.15623 0.54687,-0.31248 0.78125,-0.46875 0.36458,-0.20831 0.6901,-0.3906 0.97657,-0.54688 0.31249,-0.18226 0.61197,-0.32549 0.89843,-0.42968 0.3125,-0.13019 0.63802,-0.23435 0.97657,-0.3125 0.33853,-0.0781 0.72915,-0.14321 1.17187,-0.19532 0.20832,3e-5 0.33853,-0.039 0.39063,-0.11718 0.0781,-0.0781 0.18228,-0.16925 0.3125,-0.27344 0.31249,0.0521 0.62499,0.10419 0.9375,0.15625 0.31248,0.0261 0.62498,0.0391 0.9375,0.0391 0.62498,3e-5 1.21092,-0.11716 1.75781,-0.35156 0.78123,2e-5 1.54946,-0.013 2.30469,-0.0391 0.78123,-0.026 1.56248,-0.039 2.34375,-0.0391 0.67706,3e-5 1.35414,0.0261 2.03125,0.0781 0.67706,0.0521 1.34112,0.14325 1.99218,0.27344 0.23436,-0.0781 0.49477,-0.11717 0.78125,-0.11719 0.31248,2e-5 0.62498,0.0391 0.9375,0.11719 0.33852,0.0521 0.66404,0.0521 0.97657,0 0.026,0.28648 0.0911,0.53388 0.19531,0.74218 0.13018,0.18232 0.19529,0.40367 0.19531,0.66407"
         id="path3108"
         inkscape:connector-curvature="0"
         style="fill:#ffffff" />
      <path
         d="m 500.702,198.91217 c -3e-5,0.44271 -0.11721,0.83334 -0.35157,1.17188 -0.20835,0.3125 -0.28648,0.70312 -0.23437,1.17187 -0.36461,0.20834 -0.66408,0.48177 -0.89844,0.82031 -0.23439,0.33855 -0.45575,0.69011 -0.66406,1.05469 -1.71877,1.11979 -3.56773,2.01823 -5.54688,2.69531 -1.95313,0.70313 -3.97136,1.05469 -6.05468,1.05469 -0.13022,0 -0.24741,-0.0651 -0.35157,-0.19531 -0.10417,-0.10417 -0.20834,-0.22136 -0.3125,-0.35156 -0.10417,-0.13022 -0.22136,-0.26042 -0.35156,-0.39063 -0.10417,-0.10417 -0.23438,-0.15625 -0.39062,-0.15625 -0.1823,0 -0.32553,0.0391 -0.42969,0.11719 -1e-5,-0.0521 -1e-5,-0.10417 0,-0.15625 0.026,-0.026 0.0391,-0.0651 0.0391,-0.11719 0,-0.3125 -0.0391,-0.63802 -0.11719,-0.97656 -0.0781,-0.3125 -0.11719,-0.625 -0.11718,-0.9375 -1e-5,-0.36458 0.0651,-0.66406 0.19531,-0.89844 l 0.46875,0 c 0.26041,0 0.5078,-0.013 0.74219,-0.0391 0.26041,-0.0521 0.53384,-0.0781 0.82031,-0.0781 0.28645,0 0.54687,0.0781 0.78125,0.23438 1.43228,-0.0521 2.78645,-0.3125 4.0625,-0.78125 1.30207,-0.49479 2.61717,-0.97656 3.94531,-1.44531 0.20832,-0.28646 0.3255,-0.59896 0.35156,-0.9375 0.0521,-0.36458 0.15624,-0.70312 0.3125,-1.01563 -0.6771,-0.57291 -1.3672,-1.01562 -2.07031,-1.32812 -0.6771,-0.33854 -1.47137,-0.45573 -2.38281,-0.35157 -0.54689,-0.33853 -1.13283,-0.53384 -1.75781,-0.58593 -0.59897,-0.0521 -1.21095,-0.13021 -1.83594,-0.23438 -0.15626,-0.026 -0.32553,-0.0521 -0.50781,-0.0781 -0.15626,-0.0521 -0.32553,-0.0781 -0.50782,-0.0781 -0.13021,1e-5 -0.26042,0.0391 -0.39062,0.11719 -0.10418,0.0521 -0.13022,0.14323 -0.0781,0.27344 -0.13021,-0.20833 -0.3125,-0.32552 -0.54687,-0.35157 -0.20834,-0.0521 -0.39063,-0.15624 -0.54688,-0.3125 -0.83334,-0.0521 -1.5625,-0.1953 -2.1875,-0.42968 -0.625,-0.26041 -1.3151,-0.54687 -2.07031,-0.85938 -0.20833,-0.0781 -0.41667,-0.1302 -0.625,-0.15625 -0.18229,-0.0521 -0.36458,-0.1302 -0.54687,-0.23437 -0.46875,-0.23437 -0.84636,-0.54687 -1.13282,-0.9375 -0.28645,-0.39062 -0.50781,-0.82031 -0.66406,-1.28907 -0.18229,-0.49478 -0.3125,-1.00259 -0.39062,-1.52343 -0.0781,-0.52082 -0.15625,-1.00259 -0.23438,-1.44532 0.23438,-0.41665 0.45573,-0.84634 0.66406,-1.28906 0.1823,-0.44269 0.33855,-0.91144 0.46875,-1.40625 0.15625,-0.0781 0.3125,-0.14321 0.46875,-0.19531 0.15625,-0.0521 0.32552,-0.11717 0.50782,-0.19531 -0.026,-0.0521 -0.0391,-0.11717 -0.0391,-0.19532 0,-0.13019 0.0391,-0.2604 0.11719,-0.39062 0.10417,-0.13019 0.13021,-0.2604 0.0781,-0.39063 0.57291,-0.52081 1.11979,-1.05466 1.64062,-1.60156 0.54687,-0.5729 1.01562,-1.19789 1.40625,-1.875 0.39062,-0.13019 0.70312,-0.3255 0.9375,-0.58594 0.23437,-0.26039 0.46875,-0.52081 0.70313,-0.78125 0.23437,-0.28643 0.49478,-0.53383 0.78125,-0.74218 0.28645,-0.23435 0.65103,-0.37758 1.09375,-0.42969 0.10415,-0.18227 0.24738,-0.3255 0.42968,-0.42969 0.18229,-0.13018 0.36458,-0.24737 0.54688,-0.35156 0.18228,-0.10414 0.35155,-0.22133 0.50781,-0.35156 0.15624,-0.13019 0.27343,-0.31248 0.35156,-0.54688 0.41666,3e-5 0.79426,-0.0781 1.13282,-0.23437 0.36457,-0.15623 0.71613,-0.3255 1.05468,-0.50782 0.33853,-0.18226 0.67707,-0.35153 1.01563,-0.50781 0.36457,-0.15622 0.75519,-0.23435 1.17187,-0.23437 0.10416,2e-5 0.20832,0.013 0.3125,0.0391 0.10416,3e-5 0.22134,0.013 0.35157,0.0391 0.18227,0.18232 0.29946,0.40367 0.35156,0.66406 0.0781,0.23441 0.13019,0.49482 0.15625,0.78125 0.026,0.28649 0.039,0.57295 0.0391,0.85938 0.026,0.28648 0.0781,0.5469 0.15625,0.78125 -0.23439,0.44273 -0.49481,0.88544 -0.78125,1.32812 -0.26043,0.44273 -0.61199,0.78128 -1.05469,1.01563 l -0.0781,0 c -0.18231,0.0261 -0.35158,-0.013 -0.50781,-0.11719 -0.15627,-0.10414 -0.33856,-0.15623 -0.54688,-0.15625 -0.13022,2e-5 -0.23439,0.0391 -0.3125,0.11719 l -0.19531,0.19531 c -0.0521,0.0521 -0.13022,0.10419 -0.23438,0.15625 -0.0781,0.0521 -0.19532,0.0521 -0.35156,0 -0.36459,0.13023 -0.50782,0.35158 -0.42969,0.66406 -0.4948,0.0521 -0.91146,0.20836 -1.25,0.46875 -0.33855,0.2344 -0.65105,0.50784 -0.9375,0.82032 -0.28646,0.28647 -0.57292,0.55991 -0.85937,0.82031 -0.28647,0.23439 -0.62501,0.3646 -1.01563,0.39062 -0.44271,0.78127 -0.98959,1.47137 -1.64062,2.07032 -0.62501,0.59897 -1.14584,1.27605 -1.5625,2.03125 0.0781,0.20834 0.1302,0.4297 0.15625,0.66406 0.026,0.23439 0.0651,0.48178 0.11719,0.74219 0.23437,0.31251 0.5078,0.58595 0.82031,0.82031 0.33854,0.23439 0.66406,0.46876 0.97656,0.70312 l 0.11719,0 c 0.52083,2e-5 1.0026,0.10418 1.44531,0.3125 0.4427,0.18231 0.91145,0.27345 1.40625,0.27344 0.26041,10e-6 0.48176,-0.0521 0.66406,-0.15625 0.67708,0.15626 1.34114,0.28647 1.99219,0.39063 0.67707,0.10417 1.35416,0.1823 2.03125,0.23437 0.33853,0.0521 0.67707,0.0781 1.01563,0.0781 0.36456,1e-5 0.70311,0.0391 1.01562,0.11718 0.28644,0.0781 0.5729,0.18231 0.85938,0.3125 0.28644,0.10418 0.5729,0.22137 0.85937,0.35157 0.59894,0.26042 1.15884,0.54688 1.67969,0.85937 0.54685,0.31251 1.02862,0.69011 1.44531,1.13281 0.41665,0.41668 0.74217,0.91147 0.97656,1.48438 0.23436,0.54688 0.35154,1.1849 0.35157,1.91406"
         id="path3110"
         inkscape:connector-curvature="0"
         style="fill:#ffffff" />
      <path
         d="m 523.67075,198.91217 c -3e-5,0.44271 -0.11721,0.83334 -0.35157,1.17188 -0.20835,0.3125 -0.28648,0.70312 -0.23437,1.17187 -0.36461,0.20834 -0.66408,0.48177 -0.89844,0.82031 -0.23439,0.33855 -0.45575,0.69011 -0.66406,1.05469 -1.71877,1.11979 -3.56773,2.01823 -5.54688,2.69531 -1.95313,0.70313 -3.97136,1.05469 -6.05468,1.05469 -0.13022,0 -0.24741,-0.0651 -0.35157,-0.19531 -0.10417,-0.10417 -0.20834,-0.22136 -0.3125,-0.35156 -0.10417,-0.13022 -0.22136,-0.26042 -0.35156,-0.39063 -0.10417,-0.10417 -0.23438,-0.15625 -0.39062,-0.15625 -0.1823,0 -0.32553,0.0391 -0.42969,0.11719 -1e-5,-0.0521 -1e-5,-0.10417 0,-0.15625 0.026,-0.026 0.0391,-0.0651 0.0391,-0.11719 0,-0.3125 -0.0391,-0.63802 -0.11719,-0.97656 -0.0781,-0.3125 -0.11719,-0.625 -0.11718,-0.9375 -1e-5,-0.36458 0.0651,-0.66406 0.19531,-0.89844 l 0.46875,0 c 0.26041,0 0.5078,-0.013 0.74219,-0.0391 0.26041,-0.0521 0.53384,-0.0781 0.82031,-0.0781 0.28645,0 0.54687,0.0781 0.78125,0.23438 1.43228,-0.0521 2.78645,-0.3125 4.0625,-0.78125 1.30207,-0.49479 2.61717,-0.97656 3.94531,-1.44531 0.20832,-0.28646 0.3255,-0.59896 0.35156,-0.9375 0.0521,-0.36458 0.15624,-0.70312 0.3125,-1.01563 -0.6771,-0.57291 -1.3672,-1.01562 -2.07031,-1.32812 -0.6771,-0.33854 -1.47137,-0.45573 -2.38281,-0.35157 -0.54689,-0.33853 -1.13283,-0.53384 -1.75781,-0.58593 -0.59897,-0.0521 -1.21095,-0.13021 -1.83594,-0.23438 -0.15626,-0.026 -0.32553,-0.0521 -0.50781,-0.0781 -0.15626,-0.0521 -0.32553,-0.0781 -0.50782,-0.0781 -0.13021,1e-5 -0.26042,0.0391 -0.39062,0.11719 -0.10418,0.0521 -0.13022,0.14323 -0.0781,0.27344 -0.13021,-0.20833 -0.3125,-0.32552 -0.54687,-0.35157 -0.20834,-0.0521 -0.39063,-0.15624 -0.54688,-0.3125 -0.83334,-0.0521 -1.5625,-0.1953 -2.1875,-0.42968 -0.625,-0.26041 -1.3151,-0.54687 -2.07031,-0.85938 -0.20833,-0.0781 -0.41667,-0.1302 -0.625,-0.15625 -0.18229,-0.0521 -0.36458,-0.1302 -0.54687,-0.23437 -0.46875,-0.23437 -0.84636,-0.54687 -1.13282,-0.9375 -0.28645,-0.39062 -0.50781,-0.82031 -0.66406,-1.28907 -0.18229,-0.49478 -0.3125,-1.00259 -0.39062,-1.52343 -0.0781,-0.52082 -0.15625,-1.00259 -0.23438,-1.44532 0.23438,-0.41665 0.45573,-0.84634 0.66406,-1.28906 0.1823,-0.44269 0.33855,-0.91144 0.46875,-1.40625 0.15625,-0.0781 0.3125,-0.14321 0.46875,-0.19531 0.15625,-0.0521 0.32552,-0.11717 0.50782,-0.19531 -0.026,-0.0521 -0.0391,-0.11717 -0.0391,-0.19532 0,-0.13019 0.0391,-0.2604 0.11719,-0.39062 0.10417,-0.13019 0.13021,-0.2604 0.0781,-0.39063 0.57291,-0.52081 1.11979,-1.05466 1.64062,-1.60156 0.54687,-0.5729 1.01562,-1.19789 1.40625,-1.875 0.39062,-0.13019 0.70312,-0.3255 0.9375,-0.58594 0.23437,-0.26039 0.46875,-0.52081 0.70313,-0.78125 0.23437,-0.28643 0.49478,-0.53383 0.78125,-0.74218 0.28645,-0.23435 0.65103,-0.37758 1.09375,-0.42969 0.10415,-0.18227 0.24738,-0.3255 0.42968,-0.42969 0.18229,-0.13018 0.36458,-0.24737 0.54688,-0.35156 0.18228,-0.10414 0.35155,-0.22133 0.50781,-0.35156 0.15624,-0.13019 0.27343,-0.31248 0.35156,-0.54688 0.41666,3e-5 0.79426,-0.0781 1.13282,-0.23437 0.36457,-0.15623 0.71613,-0.3255 1.05468,-0.50782 0.33853,-0.18226 0.67707,-0.35153 1.01563,-0.50781 0.36457,-0.15622 0.75519,-0.23435 1.17187,-0.23437 0.10416,2e-5 0.20832,0.013 0.3125,0.0391 0.10416,3e-5 0.22134,0.013 0.35157,0.0391 0.18227,0.18232 0.29946,0.40367 0.35156,0.66406 0.0781,0.23441 0.13019,0.49482 0.15625,0.78125 0.026,0.28649 0.0391,0.57295 0.0391,0.85938 0.026,0.28648 0.0781,0.5469 0.15625,0.78125 -0.23439,0.44273 -0.49481,0.88544 -0.78125,1.32812 -0.26043,0.44273 -0.61199,0.78128 -1.05469,1.01563 l -0.0781,0 c -0.18231,0.0261 -0.35158,-0.013 -0.50781,-0.11719 -0.15627,-0.10414 -0.33856,-0.15623 -0.54688,-0.15625 -0.13022,2e-5 -0.23439,0.0391 -0.3125,0.11719 l -0.19531,0.19531 c -0.0521,0.0521 -0.13022,0.10419 -0.23438,0.15625 -0.0781,0.0521 -0.19532,0.0521 -0.35156,0 -0.36459,0.13023 -0.50782,0.35158 -0.42969,0.66406 -0.4948,0.0521 -0.91146,0.20836 -1.25,0.46875 -0.33855,0.2344 -0.65105,0.50784 -0.9375,0.82032 -0.28646,0.28647 -0.57292,0.55991 -0.85937,0.82031 -0.28647,0.23439 -0.62501,0.3646 -1.01563,0.39062 -0.44271,0.78127 -0.98959,1.47137 -1.64062,2.07032 -0.62501,0.59897 -1.14584,1.27605 -1.5625,2.03125 0.0781,0.20834 0.1302,0.4297 0.15625,0.66406 0.026,0.23439 0.0651,0.48178 0.11719,0.74219 0.23437,0.31251 0.5078,0.58595 0.82031,0.82031 0.33854,0.23439 0.66406,0.46876 0.97656,0.70312 l 0.11719,0 c 0.52083,2e-5 1.0026,0.10418 1.44531,0.3125 0.4427,0.18231 0.91145,0.27345 1.40625,0.27344 0.26041,10e-6 0.48176,-0.0521 0.66406,-0.15625 0.67708,0.15626 1.34114,0.28647 1.99219,0.39063 0.67707,0.10417 1.35416,0.1823 2.03125,0.23437 0.33853,0.0521 0.67707,0.0781 1.01563,0.0781 0.36456,1e-5 0.70311,0.0391 1.01562,0.11718 0.28644,0.0781 0.5729,0.18231 0.85938,0.3125 0.28644,0.10418 0.5729,0.22137 0.85937,0.35157 0.59894,0.26042 1.15884,0.54688 1.67969,0.85937 0.54685,0.31251 1.02862,0.69011 1.44531,1.13281 0.41665,0.41668 0.74217,0.91147 0.97656,1.48438 0.23436,0.54688 0.35154,1.1849 0.35157,1.91406"
         id="path3112"
         inkscape:connector-curvature="0"
         style="fill:#ffffff" />
    </g>
  </g>
</svg>
